PathFileType	4	(X/Y/Z)	Walk7.trc
DataRate	CameraRate	NumFrames	NumMarkers	Units	OrigDataRate	OrigDataStartFrame	OrigNumFrames
200.000000	200.000000	4	60	mm	200.000000	669	829
Frame#	Times		RCAR		LTH3		RTH2		LBHD		LUA1		LWRU		RFA1		LFA1		LCAR		RTB3		LElbow		RToe		RTB2		RBHD		LElbowM		LTH2		C7		RPSI		RWRU		LWRR		RMT1		RMT5		RTB1		STRN		RLFC		RElbow		CLAV		T10		RBack		LPSI		LASI		LTH4		RLMAL		LLFC		LACR1		RUA1		LTB3		LTB4		RMMAL		LCAL		RTH3		LFHD		RElbowM		RCAL		LTB1		RACR1		RTH1		LTB2		LMMAL		RTH4		LMFC		RWRR		LMT5		RFHD		LLMAL		RASI		RTB4		LToe		LMT1		LTH1
			X1	Y1	Z1	X2	Y2	Z2	X3	Y3	Z3	X4	Y4	Z4	X5	Y5	Z5	X6	Y6	Z6	X7	Y7	Z7	X8	Y8	Z8	X9	Y9	Z9	X10	Y10	Z10	X11	Y11	Z11	X12	Y12	Z12	X13	Y13	Z13	X14	Y14	Z14	X15	Y15	Z15	X16	Y16	Z16	X17	Y17	Z17	X18	Y18	Z18	X19	Y19	Z19	X20	Y20	Z20	X21	Y21	Z21	X22	Y22	Z22	X23	Y23	Z23	X24	Y24	Z24	X25	Y25	Z25	X26	Y26	Z26	X27	Y27	Z27	X28	Y28	Z28	X29	Y29	Z29	X30	Y30	Z30	X31	Y31	Z31	X32	Y32	Z32	X33	Y33	Z33	X34	Y34	Z34	X35	Y35	Z35	X36	Y36	Z36	X37	Y37	Z37	X38	Y38	Z38	X39	Y39	Z39	X40	Y40	Z40	X41	Y41	Z41	X42	Y42	Z42	X43	Y43	Z43	X44	Y44	Z44	X45	Y45	Z45	X46	Y46	Z46	X47	Y47	Z47	X48	Y48	Z48	X49	Y49	Z49	X50	Y50	Z50	X51	Y51	Z51	X52	Y52	Z52	X53	Y53	Z53	X54	Y54	Z54	X55	Y55	Z55	X56	Y56	Z56	X57	Y57	Z57	X58	Y58	Z58	X59	Y59	Z59	X60	Y60	Z60

669	3.345	308.43	838.13	371.29	214.1	616.62	-132.37	277.45	718.16	205.84	140.14	1652.2	-3.84	135.29	1311.9	-203.37	220.44	886.38	-228.12	200.4	990.8	377.28	163.25	1009.2	-239.71	298.18	862.95	-240.38	212.27	190.08	130.68	116.53	1155	-231.1	350.53	32.015	149.93	206.42	276.12	202.92	153.32	1656.6	137.17	89.127	1141.1	-158.54	267.39	721.32	-123.67	118.52	1521.6	69.195	21.216	1033.3	114.84	244.29	860.18	372.14	287.82	914.22	-187.14	297.55	39.209	127.63	246	24.892	206.36	249.15	372.02	147.08	296.79	1261.8	40.66	209.35	501.06	219.63	162.9	1137	358.31	247.86	1434.4	55.137	14.039	1298	70.475	54.181	1428.4	204.42	10.239	1027.6	37.454	209.4	1045.5	-87.741	198.31	707.51	-137.09	154.44	70.328	170	213.72	521.75	-127.58	175.88	1481.6	-105.3	189.76	1291	317.84	54.057	258.93	-62.549	126.89	321.96	-64.402	189.54	94.142	91.542	-136.32	203.58	-33.953	213.94	618.82	228.71	320.98	1693.2	22.581	127.36	1119.6	288.23	99.283	35.204	118.57	194.38	380.85	-68.831	208.84	1463.5	220.26	205.66	808.98	248.6	100.1	350.25	-129.29	-26.643	188.69	-18.756	213.01	713.23	244.02	256.18	518.54	-4.7777	295.08	875.22	317.22	-45.665	99.136	-136.28	327.09	1694.2	98.693	-75.518	203.11	-91.809	243.77	1045.4	194.89	230.98	280.78	137.64	41.823	52.601	-93.95	6.6748	72.317	-66.568	184.96	799.75	-140.2
670	3.35	318.53	840.03	370.59	222.26	617.9	-132.26	280.37	717.7	205.94	145.07	1652.6	-3.6674	139.21	1312.1	-202.87	221.03	885.81	-227.88	209.07	991.55	377.36	165.03	1009.2	-239.1	298.48	861.47	-240.07	212.63	189.99	130.64	119.67	1155.4	-230.24	350.59	31.971	149.96	207.04	276.03	202.93	158.28	1657	137.37	92.341	1141.7	-157.66	274.47	723.12	-123.55	123.49	1522	69.49	25.89	1033.7	115.26	254.1	861.39	371.8	288.67	912.83	-186.8	297.55	39.197	127.62	245.99	24.895	206.36	250.05	371.83	147.08	301.54	1262.1	40.779	210.71	501.03	219.67	170.18	1137.6	358.79	252.79	1434.8	55.282	18.922	1298.5	71.117	59.371	1428.9	204.93	14.808	1028.1	37.828	214.03	1045.9	-87.377	205.55	708.63	-137.01	154.45	70.364	169.98	222.84	523.14	-127.41	180.51	1481.9	-105.1	196.1	1291.7	318.03	66.358	258.34	-62.411	138.41	322.23	-64.33	189.59	94.135	91.5	-123.46	200.16	-33.753	216.15	618.87	228.78	325.92	1693.6	22.745	134.45	1119.9	288.82	99.259	35.256	118.54	205.28	381.95	-68.81	214.04	1464.1	220.39	209.43	809.06	248.67	111.13	350.39	-129.09	-13.432	187.09	-18.585	216.06	713.28	244.18	265.25	520.24	-4.698	304.56	876.98	316.59	-30.849	97.599	-136.23	332.04	1694.6	98.861	-62.533	200.88	-91.594	248.47	1045.7	195.21	231.58	280.64	137.66	57.472	52.266	-94.122	21.998	71.585	-66.613	191.34	800.73	-140
671	3.355	328.62	841.95	369.86	230.38	619.18	-132.15	283.29	717.23	206.03	149.99	1653	-3.5167	143.12	1312.3	-202.39	221.61	885.25	-227.65	217.72	992.31	377.42	166.78	1009.2	-238.5	298.77	860.01	-239.78	212.99	189.89	130.6	122.79	1155.7	-229.41	350.65	31.926	150	207.66	275.95	202.94	163.24	1657.3	137.54	95.553	1142.2	-156.8	281.54	724.91	-123.41	128.47	1522.4	69.765	30.555	1034.2	115.65	263.9	862.62	371.43	289.52	911.46	-186.48	297.56	39.186	127.61	245.98	24.9	206.37	250.94	371.65	147.07	306.28	1262.4	40.891	212.05	501	219.69	177.43	1138.1	359.24	257.71	1435.2	55.412	23.796	1299	71.727	64.556	1429.3	205.42	19.359	1028.6	38.17	218.68	1046.4	-87.014	212.76	709.75	-136.94	154.45	70.403	169.97	231.89	524.51	-127.25	185.15	1482.2	-104.92	202.4	1292.4	318.2	78.763	257.61	-62.252	149.97	322.44	-64.222	189.63	94.127	91.459	-110.38	196.47	-33.589	218.34	618.91	228.84	330.85	1694	22.88	141.54	1120.2	289.38	99.228	35.3	118.51	216.15	383.02	-68.74	219.24	1464.6	220.49	213.18	809.12	248.72	122.22	350.41	-128.89	-0.050453	185.3	-18.424	219.08	713.32	244.29	274.24	521.95	-4.6023	314.03	878.75	315.93	-15.76	95.867	-136.17	336.99	1695	99.001	-49.355	198.41	-91.402	253.12	1046.1	195.57	232.18	280.49	137.65	73.393	51.839	-94.252	37.57	70.72	-66.627	197.73	801.71	-139.83
672	3.36	338.7	843.9	369.08	238.45	620.45	-132.03	286.2	716.75	206.1	154.92	1653.3	-3.3854	147.03	1312.5	-201.93	222.19	884.7	-227.42	226.34	993.07	377.44	168.53	1009.2	-237.91	299.03	858.56	-239.5	213.33	189.79	130.56	125.89	1155.9	-228.6	350.71	31.88	150.04	208.28	275.86	202.94	168.21	1657.7	137.69	98.765	1142.8	-155.95	288.57	726.68	-123.25	133.44	1522.8	70.022	35.209	1034.6	115.99	273.68	863.86	371.01	290.36	910.11	-186.19	297.56	39.176	127.6	245.97	24.906	206.38	251.81	371.47	147.05	311.02	1262.6	40.996	213.37	500.98	219.71	184.64	1138.6	359.67	262.64	1435.5	55.524	28.663	1299.4	72.303	69.739	1429.7	205.89	23.891	1029.1	38.482	223.34	1046.8	-86.658	219.93	710.85	-136.88	154.46	70.444	169.95	240.86	525.86	-127.09	189.79	1482.5	-104.76	208.67	1293	318.36	91.268	256.77	-62.074	161.57	322.58	-64.08	189.66	94.119	91.418	-97.099	192.49	-33.457	220.5	618.95	228.89	335.79	1694.4	22.986	148.6	1120.5	289.9	99.191	35.339	118.49	226.98	384.08	-68.618	224.43	1465.1	220.58	216.91	809.17	248.75	133.36	350.28	-128.69	13.501	183.34	-18.276	222.08	713.34	244.36	283.16	523.67	-4.4889	323.5	880.55	315.23	-0.40571	93.959	-136.12	341.94	1695.3	99.114	-35.984	195.7	-91.231	257.72	1046.4	195.96	232.78	280.36	137.64	89.574	51.333	-94.356	53.385	69.734	-66.621	204.09	802.69	-139.66
